<mxfile host="app.diagrams.net" modified="2021-04-22T09:59:06.341Z" agent="5.0 (Macintosh; Intel Mac OS X 10_15_7) AppleWebKit/537.36 (KHTML, like Gecko) Chrome/90.0.4430.72 Safari/537.36" etag="0rVrzFkgKnUr3PGx2uBx" version="14.2.7" type="github">
  <diagram id="R2lEEEUBdFMjLlhIrx00" name="Page-1">
    <mxGraphModel dx="1619" dy="1062" grid="1" gridSize="10" guides="1" tooltips="1" connect="1" arrows="1" fold="1" page="1" pageScale="1" pageWidth="850" pageHeight="1100" math="0" shadow="0" extFonts="Permanent Marker^https://fonts.googleapis.com/css?family=Permanent+Marker">
      <root>
        <mxCell id="0" />
        <mxCell id="1" parent="0" />
        <mxCell id="im5X0q9sZxKrOccXs8Aq-85" style="edgeStyle=orthogonalEdgeStyle;rounded=0;orthogonalLoop=1;jettySize=auto;html=1;" edge="1" parent="1" source="im5X0q9sZxKrOccXs8Aq-83" target="im5X0q9sZxKrOccXs8Aq-84">
          <mxGeometry relative="1" as="geometry" />
        </mxCell>
        <mxCell id="im5X0q9sZxKrOccXs8Aq-86" value="创建" style="edgeLabel;html=1;align=center;verticalAlign=middle;resizable=0;points=[];" vertex="1" connectable="0" parent="im5X0q9sZxKrOccXs8Aq-85">
          <mxGeometry x="-0.1006" y="-4" relative="1" as="geometry">
            <mxPoint as="offset" />
          </mxGeometry>
        </mxCell>
        <mxCell id="im5X0q9sZxKrOccXs8Aq-83" value="客户" style="rounded=1;whiteSpace=wrap;html=1;" vertex="1" parent="1">
          <mxGeometry x="160" y="130" width="120" height="60" as="geometry" />
        </mxCell>
        <mxCell id="im5X0q9sZxKrOccXs8Aq-88" style="edgeStyle=orthogonalEdgeStyle;rounded=0;orthogonalLoop=1;jettySize=auto;html=1;exitX=1;exitY=0.5;exitDx=0;exitDy=0;entryX=0;entryY=0.5;entryDx=0;entryDy=0;" edge="1" parent="1" source="im5X0q9sZxKrOccXs8Aq-84" target="im5X0q9sZxKrOccXs8Aq-87">
          <mxGeometry relative="1" as="geometry" />
        </mxCell>
        <mxCell id="im5X0q9sZxKrOccXs8Aq-84" value="order_freight" style="rounded=1;whiteSpace=wrap;html=1;" vertex="1" parent="1">
          <mxGeometry x="160" y="320" width="120" height="60" as="geometry" />
        </mxCell>
        <mxCell id="im5X0q9sZxKrOccXs8Aq-87" value="客户关注" style="rounded=1;whiteSpace=wrap;html=1;" vertex="1" parent="1">
          <mxGeometry x="310" y="320" width="120" height="60" as="geometry" />
        </mxCell>
        <mxCell id="im5X0q9sZxKrOccXs8Aq-90" value="" style="endArrow=classic;startArrow=classic;html=1;exitX=0.5;exitY=0;exitDx=0;exitDy=0;entryX=1;entryY=0.5;entryDx=0;entryDy=0;" edge="1" parent="1" source="im5X0q9sZxKrOccXs8Aq-87" target="im5X0q9sZxKrOccXs8Aq-83">
          <mxGeometry width="50" height="50" relative="1" as="geometry">
            <mxPoint x="390" y="240" as="sourcePoint" />
            <mxPoint x="440" y="190" as="targetPoint" />
          </mxGeometry>
        </mxCell>
        <mxCell id="im5X0q9sZxKrOccXs8Aq-91" value="查看" style="edgeLabel;html=1;align=center;verticalAlign=middle;resizable=0;points=[];" vertex="1" connectable="0" parent="im5X0q9sZxKrOccXs8Aq-90">
          <mxGeometry x="0.1505" y="-1" relative="1" as="geometry">
            <mxPoint as="offset" />
          </mxGeometry>
        </mxCell>
        <mxCell id="im5X0q9sZxKrOccXs8Aq-97" value="Table" style="shape=table;startSize=30;container=1;collapsible=1;childLayout=tableLayout;fixedRows=1;rowLines=0;fontStyle=1;align=center;resizeLast=1;" vertex="1" parent="1">
          <mxGeometry x="510" y="280" width="180" height="160" as="geometry" />
        </mxCell>
        <mxCell id="im5X0q9sZxKrOccXs8Aq-98" value="" style="shape=partialRectangle;collapsible=0;dropTarget=0;pointerEvents=0;fillColor=none;top=0;left=0;bottom=1;right=0;points=[[0,0.5],[1,0.5]];portConstraint=eastwest;" vertex="1" parent="im5X0q9sZxKrOccXs8Aq-97">
          <mxGeometry y="30" width="180" height="30" as="geometry" />
        </mxCell>
        <mxCell id="im5X0q9sZxKrOccXs8Aq-99" value="PK" style="shape=partialRectangle;connectable=0;fillColor=none;top=0;left=0;bottom=0;right=0;fontStyle=1;overflow=hidden;" vertex="1" parent="im5X0q9sZxKrOccXs8Aq-98">
          <mxGeometry width="30" height="30" as="geometry" />
        </mxCell>
        <mxCell id="im5X0q9sZxKrOccXs8Aq-100" value="UniqueID" style="shape=partialRectangle;connectable=0;fillColor=none;top=0;left=0;bottom=0;right=0;align=left;spacingLeft=6;fontStyle=5;overflow=hidden;" vertex="1" parent="im5X0q9sZxKrOccXs8Aq-98">
          <mxGeometry x="30" width="150" height="30" as="geometry" />
        </mxCell>
        <mxCell id="im5X0q9sZxKrOccXs8Aq-101" value="" style="shape=partialRectangle;collapsible=0;dropTarget=0;pointerEvents=0;fillColor=none;top=0;left=0;bottom=0;right=0;points=[[0,0.5],[1,0.5]];portConstraint=eastwest;" vertex="1" parent="im5X0q9sZxKrOccXs8Aq-97">
          <mxGeometry y="60" width="180" height="30" as="geometry" />
        </mxCell>
        <mxCell id="im5X0q9sZxKrOccXs8Aq-102" value="" style="shape=partialRectangle;connectable=0;fillColor=none;top=0;left=0;bottom=0;right=0;editable=1;overflow=hidden;" vertex="1" parent="im5X0q9sZxKrOccXs8Aq-101">
          <mxGeometry width="30" height="30" as="geometry" />
        </mxCell>
        <mxCell id="im5X0q9sZxKrOccXs8Aq-103" value="Row 1" style="shape=partialRectangle;connectable=0;fillColor=none;top=0;left=0;bottom=0;right=0;align=left;spacingLeft=6;overflow=hidden;" vertex="1" parent="im5X0q9sZxKrOccXs8Aq-101">
          <mxGeometry x="30" width="150" height="30" as="geometry" />
        </mxCell>
        <mxCell id="im5X0q9sZxKrOccXs8Aq-104" value="" style="shape=partialRectangle;collapsible=0;dropTarget=0;pointerEvents=0;fillColor=none;top=0;left=0;bottom=0;right=0;points=[[0,0.5],[1,0.5]];portConstraint=eastwest;" vertex="1" parent="im5X0q9sZxKrOccXs8Aq-97">
          <mxGeometry y="90" width="180" height="30" as="geometry" />
        </mxCell>
        <mxCell id="im5X0q9sZxKrOccXs8Aq-105" value="" style="shape=partialRectangle;connectable=0;fillColor=none;top=0;left=0;bottom=0;right=0;editable=1;overflow=hidden;" vertex="1" parent="im5X0q9sZxKrOccXs8Aq-104">
          <mxGeometry width="30" height="30" as="geometry" />
        </mxCell>
        <mxCell id="im5X0q9sZxKrOccXs8Aq-106" value="Row 2" style="shape=partialRectangle;connectable=0;fillColor=none;top=0;left=0;bottom=0;right=0;align=left;spacingLeft=6;overflow=hidden;" vertex="1" parent="im5X0q9sZxKrOccXs8Aq-104">
          <mxGeometry x="30" width="150" height="30" as="geometry" />
        </mxCell>
        <mxCell id="im5X0q9sZxKrOccXs8Aq-107" value="" style="shape=partialRectangle;collapsible=0;dropTarget=0;pointerEvents=0;fillColor=none;top=0;left=0;bottom=0;right=0;points=[[0,0.5],[1,0.5]];portConstraint=eastwest;" vertex="1" parent="im5X0q9sZxKrOccXs8Aq-97">
          <mxGeometry y="120" width="180" height="30" as="geometry" />
        </mxCell>
        <mxCell id="im5X0q9sZxKrOccXs8Aq-108" value="" style="shape=partialRectangle;connectable=0;fillColor=none;top=0;left=0;bottom=0;right=0;editable=1;overflow=hidden;" vertex="1" parent="im5X0q9sZxKrOccXs8Aq-107">
          <mxGeometry width="30" height="30" as="geometry" />
        </mxCell>
        <mxCell id="im5X0q9sZxKrOccXs8Aq-109" value="Row 3" style="shape=partialRectangle;connectable=0;fillColor=none;top=0;left=0;bottom=0;right=0;align=left;spacingLeft=6;overflow=hidden;" vertex="1" parent="im5X0q9sZxKrOccXs8Aq-107">
          <mxGeometry x="30" width="150" height="30" as="geometry" />
        </mxCell>
      </root>
    </mxGraphModel>
  </diagram>
</mxfile>
